<?xml version="1.0" encoding="UTF-8"?>
<svg id="Ebene_1" xmlns="http://www.w3.org/2000/svg" version="1.1" viewBox="0 0 140.66 132.39">
  <!-- Generator: Adobe Illustrator 29.8.2, SVG Export Plug-In . SVG Version: 2.1.1 Build 3)  -->
  <defs>
    <style>
      .st0 {
        fill: #f50;
        stroke: #505851;
        stroke-linecap: round;
        stroke-linejoin: round;
        stroke-width: 8px;
      }

      .st1 {
        fill: #fff;
        stroke: #fff;
        stroke-miterlimit: 10;
      }

      .st2 {
        fill: none;
      }

      .st3 {
        fill: #b3c1b4;
      }

      .st4 {
        display: none;
      }

      .st5 {
        opacity: .99;
      }
    </style>
  </defs>
  <g id="Generatives_Objekt" class="st4">
    <g class="st5">
      <path class="st3" d="M108.4-250.03c-7.51.11-15.03-.02-22.54.02-16.59.08-33.19-.06-49.78-.02-7.48.02-14.97.03-22.45.01-16.37-.04-32.76.25-49.13.09-7.66-.08-15.42.34-23.07.02-2.43-.1-15.33-.43-16.31-1.36l-2.78-21.66-.06-.56,102.37-63.16.47-.29.47.29,101.26,62.71-.1.45.53.41-2.02,22.86c-.71.63-14.47.17-16.87.2Z"/>
      <path class="st3" d="M-35.49-249.94v2.23s0,88.74,0,88.74l.04,2.2c16.36-.09,32.72.03,49.08,0l-.06-2.2v-88.74l.07-2.31c7.48.02,14.97,0,22.45-.01l.07,2.32v88.74l-.06,2.2c16.4.03,32.79-.09,49.19,0l-.08-2.2.57-88.74.09-2.3c7.51-.03,15.03.09,22.54-.02l-.04,2.32v88.74l.09,2.2c2.33.04,15.96-.36,16.65.34l.34,17.29.13,2.2H-75.17l.04-2.21-.19-17.29c.67-.7,14.39-.3,16.73-.34l-.06-2.2v-88.74l.08-2.2c7.65.32,15.41-.1,23.07-.02Z"/>
      <path class="st2" d="M85.86-250.02l-.09,2.3-.57,88.74.08,2.2c-16.4-.09-32.79.03-49.19,0l.06-2.2v-88.74l-.07-2.32c16.59-.04,33.19.1,49.78.02Z"/>
      <path class="st2" d="M13.64-250.03l-.07,2.31v88.74l.06,2.2c-16.36.03-32.72-.09-49.08,0l-.04-2.2v-90.96c16.37.16,32.75-.13,49.13-.09Z"/>
    </g>
    <g>
      <path class="st0" d="M-77.71-273.51l.06.56,2.78,21.66c.98.93,13.87,1.26,16.31,1.36,7.65.32,15.41-.1,23.07-.02,16.37.16,32.76-.13,49.13-.09,7.48.02,14.97,0,22.45-.01,16.59-.04,33.19.1,49.78.02,7.51-.03,15.03.09,22.54-.02,2.4-.04,16.16.43,16.87-.2l2.02-22.86.04-.57"/>
      <polyline class="st0" points="25.13 -336.96 24.66 -336.67 -77.71 -273.51"/>
      <polyline class="st0" points="25.13 -336.96 25.6 -336.67 126.86 -273.95 127.33 -273.66"/>
      <polyline class="st0" points="-77.71 -273.51 126.76 -273.51 127.33 -273.66"/>
      <line class="st0" x1="108.36" y1="-247.72" x2="108.36" y2="-158.98"/>
      <line class="st0" x1="-58.64" y1="-247.72" x2="-58.64" y2="-158.98"/>
      <line class="st0" x1="-35.49" y1="-247.72" x2="-35.49" y2="-158.98"/>
      <line class="st0" x1="13.56" y1="-247.72" x2="13.56" y2="-158.98"/>
      <line class="st0" x1="36.16" y1="-247.72" x2="36.16" y2="-158.98"/>
      <line class="st0" x1="85.78" y1="-247.72" x2="85.21" y2="-158.98"/>
      <path class="st0" d="M-75.12-139.14l-.19-17.29c.67-.7,14.39-.3,16.73-.34,7.7-.14,15.43.04,23.13,0,16.36-.09,32.72.03,49.08,0,7.49-.01,14.98-.01,22.47,0,16.4.03,32.79-.09,49.19,0,7.72.04,15.46-.14,23.17,0,2.33.04,15.96-.36,16.65.34l.34,17.29"/>
      <path class="st0" d="M-87.85-136.93h227.08"/>
    </g>
  </g>
  <g>
    <path class="st1" d="M9.51,120.17,8.46,129.64,8.46,122.21c1.61-2.41,4.32-2.81,4.76-2.87,0,0,0-56.65,0-56.65-.17-.89-3.09-1.55-4.12-2.04-11.92-5.68-2.61-10.6,4.97-12.81,32.41-7.46,67.4-6.77,100.32-2.81,10.42,1.22,37.64,7.6,14.38,17.05v11.25l.95-.18c.5-2.81,2.66-5.63,5.79-5.32,1.08,2.63-.44,5.85-2.97,6.97-1.27.56-2.87.36-3.77,1.47v10.94c1.46-.12,1.33-2,2.02-3.07,7.47-7.86,7.71,2.86.93,4.93-.66.24-2.95.3-2.95,1.06v11.25c1.7-.38,1.58-2.69,2.52-4.11,2.15-3.27,7.85-5.07,5.19,1.19-1.46,3.45-4.61,1.7-5.56,2.96-.33.44-2.16,1.71-2.16,2.16v13.51c.72.18.71-.39.71-.39.99-1.23.57-1.94.98-3.01,1.17-3,4.78-7.16,8.35-5.87.42,2.38-1.01,5.8-2.79,7.41-3.45,2.26-5.54.31-7.1,4.57,1.56.48,6.6,1.2,7.33,2.91.49,1.15.9,7.26-1.45,7.03-42.11-.03-84.22-.06-126.33-.09-1.44-2.36-1.44-5.28,0-7.43ZM121.98,119.24v-8.1c-3.41-3.17-9.05-1.78-7.88-7.64,3.05-.93,8.55,2.12,8.11,5.42h0l-.17-24.25c-1.95-1.15-3.87.85-5.77-.87-3.12-2.82-3.76-8.55,1.92-5.31,1.6.91,3.78,3.17,3.79,4.99h0v-19.57c0-.1.03-.48-.15-.46-8.28.8-16.71,3.04-25.12,3.39.33,16.65-.09,33.51-.01,50.09.07.53.11.93.63,1.22l24.65,1.08ZM45.56,67.17c-8.55-.82-17.2-1.44-25.57-3.39l-.02,54.09.46,1.1c2.64.23,8.31-.35,8.31-.35,0,0,11.43-.61,16.82-1.08v-50.38ZM90.24,67.17c-12.6,1.13-25.27,1.08-37.89.32l.27,50.39,37.07.14c.21-.09.55-.64.55-.78v-50.07Z"/>
    <path class="st1" d="M124.45,42.51c-34.68-7.7-72.49-7.24-107.23-.16,16.87-50.46,90.96-50.89,107.23.16Z"/>
    <path class="st1" d="M122.11,100.43c-3.97-.06-6.56-3.05-5.26-6.95,3.93-.68,5.85,3.56,5.26,6.95Z"/>
  </g>
</svg>