<?xml version="1.0" encoding="UTF-8"?>
<svg id="Ebene_1" xmlns="http://www.w3.org/2000/svg" version="1.1" xmlns:xlink="http://www.w3.org/1999/xlink" viewBox="0 0 300.95 411.05">
  <!-- Generator: Adobe Illustrator 29.8.2, SVG Export Plug-In . SVG Version: 2.1.1 Build 3)  -->
  <defs>
    <style>
      .st0 {
        fill: #411614;
      }

      .st0, .st1, .st2 {
        stroke: #411614;
        stroke-miterlimit: 10;
      }

      .st3, .st4 {
        fill: #f50;
      }

      .st4 {
        stroke: #505851;
        stroke-linecap: round;
        stroke-linejoin: round;
        stroke-width: 8px;
      }

      .st1, .st2 {
        stroke-width: 4px;
      }

      .st1, .st5, .st6 {
        fill: #ecf0ed;
      }

      .st7, .st2 {
        fill: none;
      }

      .st5, .st8 {
        display: none;
      }

      .st9 {
        fill: #b3c1b4;
      }

      .st10 {
        clip-path: url(#clippath);
      }

      .st11 {
        opacity: .99;
      }
    </style>
    <clipPath id="clippath">
      <path class="st1" d="M148.92,9.57C71.66,9.57,9.08,80.47,9.08,157.99s139.84,244.5,139.84,244.5c0,0,139.84-166.97,139.84-244.5S226.18,9.57,148.92,9.57Z"/>
    </clipPath>
  </defs>
  <g>
    <path class="st6" d="M148.92,9.57C71.66,9.57,9.08,80.47,9.08,157.99s139.84,244.5,139.84,244.5c0,0,139.84-166.97,139.84-244.5S226.18,9.57,148.92,9.57Z"/>
    <g class="st10">
      <path class="st0" d="M327.34,217.45,327.34,415.41l-343.09.96-1.56-2.34V156.64s2.63-3.23,2.63-3.23l126.25-74.64,5.66-.88v73.58c0,.28,2.05,2.07,2.75,2.24l3.04-.59,127.22-75.68c1.3-1.13,5.04-.31,5.04.92v74.05l1.52,1.42h70.55"/>
    </g>
    <path class="st2" d="M148.92,9.57C71.66,9.57,9.08,80.47,9.08,157.99s139.84,244.5,139.84,244.5c0,0,139.84-166.97,139.84-244.5S226.18,9.57,148.92,9.57Z"/>
  </g>
  <rect class="st5" x="28.92" y="-6.1" width="240" height="275.02"/>
  <g id="Generatives_Objekt" class="st8">
    <g class="st11">
      <path class="st9" d="M236.66-181.48c-7.51.11-15.03-.02-22.54.02-16.59.08-33.19-.06-49.78-.02-7.48.02-14.97.03-22.45.01-16.37-.04-32.76.25-49.13.09-7.66-.08-15.42.34-23.07.02-2.43-.1-15.33-.43-16.31-1.36l-2.78-21.66-.06-.56,102.37-63.16.47-.29.47.29,101.26,62.71-.1.45.53.41-2.02,22.86c-.71.63-14.47.17-16.87.2Z"/>
      <path class="st9" d="M92.77-181.39v2.23s0,88.74,0,88.74l.04,2.2c16.36-.09,32.72.03,49.08,0l-.06-2.2v-88.74l.07-2.31c7.48.02,14.97,0,22.45-.01l.07,2.32v88.74l-.06,2.2c16.4.03,32.79-.09,49.19,0l-.08-2.2.57-88.74.09-2.3c7.51-.03,15.03.09,22.54-.02l-.04,2.32v88.74l.09,2.2c2.33.04,15.96-.36,16.65.34l.34,17.29.13,2.2H53.1l.04-2.21-.19-17.29c.67-.7,14.39-.3,16.73-.34l-.06-2.2v-88.74l.08-2.2c7.65.32,15.41-.1,23.07-.02Z"/>
      <path class="st7" d="M214.13-181.46l-.09,2.3-.57,88.74.08,2.2c-16.4-.09-32.79.03-49.19,0l.06-2.2v-88.74l-.07-2.32c16.59-.04,33.19.1,49.78.02Z"/>
      <path class="st7" d="M141.9-181.47l-.07,2.31v88.74l.06,2.2c-16.36.03-32.72-.09-49.08,0l-.04-2.2v-90.96c16.37.16,32.75-.13,49.13-.09Z"/>
    </g>
    <g>
      <path class="st4" d="M50.55-204.95l.06.56,2.78,21.66c.98.93,13.87,1.26,16.31,1.36,7.65.32,15.41-.1,23.07-.02,16.37.16,32.76-.13,49.13-.09,7.48.02,14.97,0,22.45-.01,16.59-.04,33.19.1,49.78.02,7.51-.03,15.03.09,22.54-.02,2.4-.04,16.16.43,16.87-.2l2.02-22.86.04-.57"/>
      <polyline class="st4" points="153.39 -268.4 152.92 -268.11 50.55 -204.95"/>
      <polyline class="st4" points="153.39 -268.4 153.86 -268.11 255.13 -205.39 255.6 -205.1"/>
      <polyline class="st4" points="50.55 -204.95 255.02 -204.95 255.6 -205.1"/>
      <line class="st4" x1="236.63" y1="-179.16" x2="236.63" y2="-90.42"/>
      <line class="st4" x1="69.62" y1="-179.16" x2="69.62" y2="-90.42"/>
      <line class="st4" x1="92.77" y1="-179.16" x2="92.77" y2="-90.42"/>
      <line class="st4" x1="141.83" y1="-179.16" x2="141.83" y2="-90.42"/>
      <line class="st4" x1="164.42" y1="-179.16" x2="164.42" y2="-90.42"/>
      <line class="st4" x1="214.04" y1="-179.16" x2="213.47" y2="-90.42"/>
      <path class="st4" d="M53.14-70.58l-.19-17.29c.67-.7,14.39-.3,16.73-.34,7.7-.14,15.43.04,23.13,0,16.36-.09,32.72.03,49.08,0,7.49-.01,14.98-.01,22.47,0,16.4.03,32.79-.09,49.19,0,7.72.04,15.46-.14,23.17,0,2.33.04,15.96-.36,16.65.34l.34,17.29"/>
      <path class="st4" d="M40.41-68.38h227.08"/>
    </g>
  </g>
  <g>
    <path class="st3" d="M80.8,289.89,79.63,300.4,79.63,292.16c1.78-2.68,4.78-3.12,5.26-3.18,0,0,0-62.86,0-62.86-.19-.99-3.41-1.72-4.55-2.27-13.18-6.3-2.89-11.76,5.5-14.21,35.82-8.28,74.51-7.51,110.9-3.12,11.52,1.36,41.61,8.43,15.9,18.92v12.48l1.05-.2c.56-3.12,2.94-6.24,6.4-5.91,1.2,2.92-.48,6.49-3.28,7.73-1.4.62-3.18.4-4.17,1.63v12.14c1.62-.14,1.47-2.22,2.23-3.4,8.26-8.72,8.52,3.18,1.03,5.47-.73.26-3.26.33-3.26,1.18v12.48c1.88-.42,1.75-2.98,2.78-4.56,2.38-3.63,8.68-5.62,5.74,1.32-1.62,3.83-5.1,1.89-6.14,3.28-.37.49-2.38,1.89-2.38,2.4v14.99c.8.2.78-.43.78-.43,1.09-1.37.63-2.16,1.09-3.34,1.29-3.33,5.28-7.94,9.23-6.51.46,2.65-1.11,6.43-3.09,8.23-3.82,2.51-6.12.35-7.85,5.07,1.72.53,7.3,1.33,8.11,3.23.54,1.28,1,8.06-1.6,7.8-46.55-.03-93.11-.07-139.66-.1-1.59-2.62-1.59-5.85,0-8.24ZM205.14,288.86v-8.98c-3.77-3.52-10.01-1.98-8.71-8.47,3.37-1.03,9.45,2.35,8.97,6.02h0l-.19-26.91c-2.16-1.28-4.28.94-6.38-.96-3.45-3.12-4.16-9.48,2.12-5.89,1.77,1.01,4.18,3.51,4.19,5.54h0v-21.71c0-.11.03-.53-.16-.51-9.16.89-18.47,3.38-27.77,3.76.36,18.48-.1,37.18-.01,55.58.08.59.12,1.03.69,1.35l27.25,1.19ZM120.65,231.08c-9.45-.91-19.01-1.59-28.27-3.76l-.02,60.02.51,1.22c2.92.26,9.19-.39,9.19-.39,0,0,12.64-.67,18.59-1.19v-55.9ZM170.05,231.08c-13.93,1.26-27.94,1.2-41.89.36l.3,55.91,40.98.16c.23-.1.61-.71.61-.87v-55.56Z"/>
    <path class="st3" d="M207.86,203.73c-38.34-8.55-80.14-8.03-118.55-.17,18.65-55.98,100.55-56.46,118.55.17Z"/>
    <path class="st3" d="M205.28,267.99c-4.38-.07-7.25-3.39-5.81-7.71,4.35-.75,6.47,3.95,5.81,7.71Z"/>
  </g>
</svg>