<?xml version="1.0" encoding="UTF-8"?>
<svg id="Ebene_1" xmlns="http://www.w3.org/2000/svg" version="1.1" xmlns:xlink="http://www.w3.org/1999/xlink" viewBox="0 0 300.95 411.05">
  <!-- Generator: Adobe Illustrator 29.8.2, SVG Export Plug-In . SVG Version: 2.1.1 Build 3)  -->
  <defs>
    <style>
      .st0 {
        fill: #411614;
      }

      .st0, .st1, .st2 {
        stroke: #411614;
        stroke-miterlimit: 10;
      }

      .st3, .st4 {
        fill: #f50;
      }

      .st4 {
        stroke: #505851;
        stroke-linecap: round;
        stroke-linejoin: round;
        stroke-width: 8px;
      }

      .st5, .st1 {
        fill: none;
      }

      .st1, .st2 {
        stroke-width: 10px;
      }

      .st6, .st7 {
        display: none;
      }

      .st6, .st8, .st2 {
        fill: #ecf0ed;
      }

      .st9 {
        fill: #b3c1b4;
      }

      .st10 {
        clip-path: url(#clippath);
      }

      .st11 {
        opacity: .99;
      }
    </style>
    <clipPath id="clippath">
      <path class="st2" d="M148.92,9.57C71.66,9.57,9.08,80.47,9.08,157.99s139.84,244.5,139.84,244.5c0,0,139.84-166.97,139.84-244.5S226.18,9.57,148.92,9.57Z"/>
    </clipPath>
  </defs>
  <g>
    <path class="st8" d="M148.92,9.57C71.66,9.57,9.08,80.47,9.08,157.99s139.84,244.5,139.84,244.5c0,0,139.84-166.97,139.84-244.5S226.18,9.57,148.92,9.57Z"/>
    <g class="st10">
      <path class="st0" d="M327.34,217.45,327.34,415.41l-343.09.96-1.56-2.34V156.64s2.63-3.23,2.63-3.23l126.25-74.64,5.66-.88v73.58c0,.28,2.05,2.07,2.75,2.24l3.04-.59,127.22-75.68c1.3-1.13,5.04-.31,5.04.92v74.05l1.52,1.42h70.55"/>
    </g>
    <path class="st1" d="M148.92,9.57C71.66,9.57,9.08,80.47,9.08,157.99s139.84,244.5,139.84,244.5c0,0,139.84-166.97,139.84-244.5S226.18,9.57,148.92,9.57Z"/>
  </g>
  <rect class="st6" x="28.92" y="-6.1" width="240" height="275.02"/>
  <g id="Generatives_Objekt" class="st7">
    <g class="st11">
      <path class="st9" d="M236.66-181.48c-7.51.11-15.03-.02-22.54.02-16.59.08-33.19-.06-49.78-.02-7.48.02-14.97.03-22.45.01-16.37-.04-32.76.25-49.13.09-7.66-.08-15.42.34-23.07.02-2.43-.1-15.33-.43-16.31-1.36l-2.78-21.66-.06-.56,102.37-63.16.47-.29.47.29,101.26,62.71-.1.45.53.41-2.02,22.86c-.71.63-14.47.17-16.87.2Z"/>
      <path class="st9" d="M92.77-181.39v2.23s0,88.74,0,88.74l.04,2.2c16.36-.09,32.72.03,49.08,0l-.06-2.2v-88.74l.07-2.31c7.48.02,14.97,0,22.45-.01l.07,2.32v88.74l-.06,2.2c16.4.03,32.79-.09,49.19,0l-.08-2.2.57-88.74.09-2.3c7.51-.03,15.03.09,22.54-.02l-.04,2.32v88.74l.09,2.2c2.33.04,15.96-.36,16.65.34l.34,17.29.13,2.2H53.1l.04-2.21-.19-17.29c.67-.7,14.39-.3,16.73-.34l-.06-2.2v-88.74l.08-2.2c7.65.32,15.41-.1,23.07-.02Z"/>
      <path class="st5" d="M214.13-181.46l-.09,2.3-.57,88.74.08,2.2c-16.4-.09-32.79.03-49.19,0l.06-2.2v-88.74l-.07-2.32c16.59-.04,33.19.1,49.78.02Z"/>
      <path class="st5" d="M141.9-181.47l-.07,2.31v88.74l.06,2.2c-16.36.03-32.72-.09-49.08,0l-.04-2.2v-90.96c16.37.16,32.75-.13,49.13-.09Z"/>
    </g>
    <g>
      <path class="st4" d="M50.55-204.95l.06.56,2.78,21.66c.98.93,13.87,1.26,16.31,1.36,7.65.32,15.41-.1,23.07-.02,16.37.16,32.76-.13,49.13-.09,7.48.02,14.97,0,22.45-.01,16.59-.04,33.19.1,49.78.02,7.51-.03,15.03.09,22.54-.02,2.4-.04,16.16.43,16.87-.2l2.02-22.86.04-.57"/>
      <polyline class="st4" points="153.39 -268.4 152.92 -268.11 50.55 -204.95"/>
      <polyline class="st4" points="153.39 -268.4 153.86 -268.11 255.13 -205.39 255.6 -205.1"/>
      <polyline class="st4" points="50.55 -204.95 255.02 -204.95 255.6 -205.1"/>
      <line class="st4" x1="236.63" y1="-179.16" x2="236.63" y2="-90.42"/>
      <line class="st4" x1="69.62" y1="-179.16" x2="69.62" y2="-90.42"/>
      <line class="st4" x1="92.77" y1="-179.16" x2="92.77" y2="-90.42"/>
      <line class="st4" x1="141.83" y1="-179.16" x2="141.83" y2="-90.42"/>
      <line class="st4" x1="164.42" y1="-179.16" x2="164.42" y2="-90.42"/>
      <line class="st4" x1="214.04" y1="-179.16" x2="213.47" y2="-90.42"/>
      <path class="st4" d="M53.14-70.58l-.19-17.29c.67-.7,14.39-.3,16.73-.34,7.7-.14,15.43.04,23.13,0,16.36-.09,32.72.03,49.08,0,7.49-.01,14.98-.01,22.47,0,16.4.03,32.79-.09,49.19,0,7.72.04,15.46-.14,23.17,0,2.33.04,15.96-.36,16.65.34l.34,17.29"/>
      <path class="st4" d="M40.41-68.38h227.08"/>
    </g>
  </g>
  <g>
    <path class="st3" d="M43.01,221.44,41.2,237.79,41.2,224.97c2.77-4.16,7.43-4.85,8.19-4.95,0,0-.02-97.72-.02-97.72-.3-1.54-5.31-2.68-7.08-3.52-20.49-9.8-4.49-18.29,8.55-22.1,55.7-12.88,115.85-11.67,172.42-4.85,17.9,2.11,64.7,13.11,24.72,29.42v19.4l1.64-.32c.87-4.85,4.57-9.71,9.95-9.19,1.86,4.54-.75,10.09-5.1,12.02-2.18.97-4.94.62-6.48,2.53v18.87c2.51-.21,2.29-3.45,3.47-5.29,12.84-13.56,13.25,4.94,1.59,8.51-1.13.41-5.06.52-5.06,1.83v19.4c2.93-.65,2.72-4.63,4.33-7.09,3.7-5.64,13.49-8.74,8.93,2.05-2.52,5.95-7.92,2.94-9.55,5.11-.57.76-3.7,2.95-3.7,3.73v23.31c1.24.3,1.21-.67,1.21-.67,1.7-2.12.98-3.35,1.69-5.19,2.01-5.18,8.21-12.35,14.35-10.12.72,4.11-1.73,10-4.8,12.79-5.94,3.91-9.51.54-12.2,7.88,2.68.82,11.34,2.07,12.6,5.01.85,1.98,1.56,12.53-2.49,12.12-72.38-.05-144.75-.11-217.13-.16-2.48-4.08-2.48-9.1,0-12.82ZM236.32,219.84v-13.96c-5.87-5.47-15.56-3.08-13.54-13.18,5.25-1.61,14.69,3.65,13.94,9.36h0l-.3-41.83c-3.36-1.98-6.65,1.46-9.92-1.5-5.36-4.86-6.46-14.75,3.3-9.16,2.75,1.57,6.49,5.46,6.51,8.62h0v-33.75c0-.18.05-.82-.25-.79-14.24,1.38-28.72,5.25-43.18,5.85.56,28.73-.16,57.8-.02,86.4.12.91.19,1.6,1.08,2.1l42.37,1.86ZM104.97,130.01c-14.7-1.41-29.56-2.48-43.95-5.85l-.03,93.31.79,1.9c4.54.4,14.29-.6,14.29-.6,0,0,19.65-1.04,28.9-1.86v-86.91ZM181.77,130.01c-21.66,1.96-43.44,1.86-65.12.56l.47,86.92,63.71.25c.36-.16.94-1.11.94-1.35v-86.38Z"/>
    <path class="st3" d="M240.55,87.49c-59.61-13.29-124.59-12.49-184.31-.27C85.23.18,212.57-.57,240.55,87.49Z"/>
    <path class="st3" d="M236.54,187.39c-6.81-.11-11.28-5.27-9.04-11.99,6.76-1.17,10.06,6.15,9.04,11.99Z"/>
  </g>
</svg>