<?xml version="1.0" encoding="UTF-8"?>
<svg id="Ebene_1" xmlns="http://www.w3.org/2000/svg" version="1.1" xmlns:xlink="http://www.w3.org/1999/xlink" viewBox="0 0 300.95 411.05">
  <!-- Generator: Adobe Illustrator 29.8.2, SVG Export Plug-In . SVG Version: 2.1.1 Build 3)  -->
  <defs>
    <style>
      .st0 {
        fill: #411614;
      }

      .st0, .st1, .st2 {
        stroke: #411614;
        stroke-miterlimit: 10;
      }

      .st3, .st4 {
        fill: #f50;
      }

      .st4 {
        stroke: #505851;
        stroke-linecap: round;
        stroke-linejoin: round;
        stroke-width: 8px;
      }

      .st5, .st1 {
        fill: none;
      }

      .st1, .st2 {
        stroke-width: 10px;
      }

      .st6, .st7 {
        display: none;
      }

      .st6, .st8, .st2 {
        fill: #ecf0ed;
      }

      .st9 {
        fill: #b3c1b4;
      }

      .st10 {
        clip-path: url(#clippath);
      }

      .st11 {
        opacity: .99;
      }
    </style>
    <clipPath id="clippath">
      <path class="st2" d="M148.92,9.57C71.66,9.57,9.08,80.47,9.08,157.99s139.84,244.5,139.84,244.5c0,0,139.84-166.97,139.84-244.5S226.18,9.57,148.92,9.57Z"/>
    </clipPath>
  </defs>
  <g>
    <path class="st8" d="M148.92,9.57C71.66,9.57,9.08,80.47,9.08,157.99s139.84,244.5,139.84,244.5c0,0,139.84-166.97,139.84-244.5S226.18,9.57,148.92,9.57Z"/>
    <g class="st10">
      <path class="st0" d="M327.34,217.45,327.34,415.41l-343.09.96-1.56-2.34V156.64s2.63-3.23,2.63-3.23l126.25-74.64,5.66-.88v73.58c0,.28,2.05,2.07,2.75,2.24l3.04-.59,127.22-75.68c1.3-1.13,5.04-.31,5.04.92v74.05l1.52,1.42h70.55"/>
    </g>
    <path class="st1" d="M148.92,9.57C71.66,9.57,9.08,80.47,9.08,157.99s139.84,244.5,139.84,244.5c0,0,139.84-166.97,139.84-244.5S226.18,9.57,148.92,9.57Z"/>
  </g>
  <rect class="st6" x="28.92" y="-6.1" width="240" height="275.02"/>
  <g id="Generatives_Objekt" class="st7">
    <g class="st11">
      <path class="st9" d="M236.66-181.48c-7.51.11-15.03-.02-22.54.02-16.59.08-33.19-.06-49.78-.02-7.48.02-14.97.03-22.45.01-16.37-.04-32.76.25-49.13.09-7.66-.08-15.42.34-23.07.02-2.43-.1-15.33-.43-16.31-1.36l-2.78-21.66-.06-.56,102.37-63.16.47-.29.47.29,101.26,62.71-.1.45.53.41-2.02,22.86c-.71.63-14.47.17-16.87.2Z"/>
      <path class="st9" d="M92.77-181.39v2.23s0,88.74,0,88.74l.04,2.2c16.36-.09,32.72.03,49.08,0l-.06-2.2v-88.74l.07-2.31c7.48.02,14.97,0,22.45-.01l.07,2.32v88.74l-.06,2.2c16.4.03,32.79-.09,49.19,0l-.08-2.2.57-88.74.09-2.3c7.51-.03,15.03.09,22.54-.02l-.04,2.32v88.74l.09,2.2c2.33.04,15.96-.36,16.65.34l.34,17.29.13,2.2H53.1l.04-2.21-.19-17.29c.67-.7,14.39-.3,16.73-.34l-.06-2.2v-88.74l.08-2.2c7.65.32,15.41-.1,23.07-.02Z"/>
      <path class="st5" d="M214.13-181.46l-.09,2.3-.57,88.74.08,2.2c-16.4-.09-32.79.03-49.19,0l.06-2.2v-88.74l-.07-2.32c16.59-.04,33.19.1,49.78.02Z"/>
      <path class="st5" d="M141.9-181.47l-.07,2.31v88.74l.06,2.2c-16.36.03-32.72-.09-49.08,0l-.04-2.2v-90.96c16.37.16,32.75-.13,49.13-.09Z"/>
    </g>
    <g>
      <path class="st4" d="M50.55-204.95l.06.56,2.78,21.66c.98.93,13.87,1.26,16.31,1.36,7.65.32,15.41-.1,23.07-.02,16.37.16,32.76-.13,49.13-.09,7.48.02,14.97,0,22.45-.01,16.59-.04,33.19.1,49.78.02,7.51-.03,15.03.09,22.54-.02,2.4-.04,16.16.43,16.87-.2l2.02-22.86.04-.57"/>
      <polyline class="st4" points="153.39 -268.4 152.92 -268.11 50.55 -204.95"/>
      <polyline class="st4" points="153.39 -268.4 153.86 -268.11 255.13 -205.39 255.6 -205.1"/>
      <polyline class="st4" points="50.55 -204.95 255.02 -204.95 255.6 -205.1"/>
      <line class="st4" x1="236.63" y1="-179.16" x2="236.63" y2="-90.42"/>
      <line class="st4" x1="69.62" y1="-179.16" x2="69.62" y2="-90.42"/>
      <line class="st4" x1="92.77" y1="-179.16" x2="92.77" y2="-90.42"/>
      <line class="st4" x1="141.83" y1="-179.16" x2="141.83" y2="-90.42"/>
      <line class="st4" x1="164.42" y1="-179.16" x2="164.42" y2="-90.42"/>
      <line class="st4" x1="214.04" y1="-179.16" x2="213.47" y2="-90.42"/>
      <path class="st4" d="M53.14-70.58l-.19-17.29c.67-.7,14.39-.3,16.73-.34,7.7-.14,15.43.04,23.13,0,16.36-.09,32.72.03,49.08,0,7.49-.01,14.98-.01,22.47,0,16.4.03,32.79-.09,49.19,0,7.72.04,15.46-.14,23.17,0,2.33.04,15.96-.36,16.65.34l.34,17.29"/>
      <path class="st4" d="M40.41-68.38h227.08"/>
    </g>
  </g>
  <g>
    <path class="st3" d="M49.91,348.14,48.22,363.42,148.92,402.49c-2.32-3.81-93.06-147.03-93.06-147.03-.28-1.44-4.96-2.5-6.62-3.29-19.16-9.16-4.2-17.09,7.99-20.66,52.07-12.04,108.3-10.91,161.18-4.53,16.74,1.97,60.48,12.25,23.1,27.5l-92.6,148.02ZM230.62,257.45c0-.16.04-.77-.24-.74-13.31,1.29-26.84,4.91-40.36,5.46,0,0-41.93,139.85-41.11,140.32l81.71-145.04ZM148.92,402.49l-41.08-139.82c-13.74-1.32-27.63-2.32-41.09-5.47M179.63,262.67c-20.25,1.83-40.61,1.74-60.88.52,0,0,30.4,126.83,30.17,139.3-.79-9.22,30.71-139.82,30.71-139.82Z"/>
    <path class="st3" d="M234.58,222.92c-55.72-12.42-116.47-11.67-172.3-.25,27.1-81.37,146.14-82.06,172.3.25Z"/>
  </g>
  <g class="st7">
    <g>
      <path class="st3" d="M79.65,374.12,77.96,389.4,77.96,377.42c2.59-3.89,6.94-4.53,7.65-4.62,0,0-.01-91.36-.01-91.36-.28-1.44-4.96-2.5-6.62-3.29-19.16-9.16-4.2-17.09,7.99-20.66,52.07-12.04,108.3-10.91,161.18-4.53,16.74,1.97,60.48,12.25,23.1,27.5v18.14l1.53-.3c.81-4.53,4.27-9.07,9.3-8.59,1.74,4.24-.7,9.43-4.77,11.24-2.04.91-4.62.58-6.06,2.37v17.64c2.35-.2,2.14-3.22,3.24-4.95,12-12.67,12.38,4.62,1.49,7.96-1.06.38-4.73.48-4.73,1.71v18.14c2.74-.61,2.54-4.33,4.04-6.63,3.46-5.28,12.61-8.17,8.34,1.92-2.35,5.56-7.41,2.75-8.93,4.77-.53.71-3.46,2.75-3.46,3.49v21.79c1.16.28,1.13-.63,1.13-.63,1.59-1.99.91-3.14,1.58-4.85,1.88-4.84,7.67-11.55,13.41-9.46.67,3.85-1.62,9.35-4.49,11.96-5.55,3.65-8.89.5-11.41,7.37,2.51.77,10.61,1.93,11.78,4.69.79,1.85,1.45,11.72-2.32,11.33-67.66-.05-135.32-.1-202.98-.15-2.32-3.81-2.32-8.51,0-11.98ZM260.37,372.63v-13.05c-5.48-5.11-14.55-2.88-12.66-12.32,4.9-1.5,13.73,3.41,13.03,8.75h0l-.28-39.11c-3.14-1.86-6.22,1.37-9.27-1.4-5.01-4.54-6.04-13.78,3.09-8.56,2.57,1.47,6.07,5.1,6.09,8.05h0v-31.55c0-.16.04-.77-.24-.74-13.31,1.29-26.84,4.91-40.36,5.46.53,26.86-.15,54.03-.02,80.77.11.85.18,1.5,1.01,1.96l39.61,1.74ZM137.58,288.65c-13.74-1.32-27.63-2.32-41.09-5.47l-.03,87.23.74,1.78c4.25.38,13.36-.56,13.36-.56,0,0,18.37-.98,27.02-1.74v-81.25ZM209.37,288.65c-20.25,1.83-40.61,1.74-60.88.52l.44,81.25,59.55.23c.34-.15.88-1.04.88-1.26v-80.75Z"/>
      <path class="st3" d="M264.32,248.9c-55.72-12.42-116.47-11.67-172.3-.25,27.1-81.37,146.14-82.06,172.3.25Z"/>
      <path class="st3" d="M260.57,342.29c-6.37-.1-10.54-4.92-8.45-11.21,6.32-1.09,9.4,5.75,8.45,11.21Z"/>
    </g>
  </g>
  <path class="st3" d="M246.2,381.54"/>
</svg>